Coordinates
version=1
nRows=6
nColumns=36
inDegrees=yes

Units are S.I. units (second, meters, Newtons, ...)
If the header above contains a line with 'inDegrees', this indicates whether rotational values are in degrees (yes) or radians (no).

endheader
time	pelvis_tilt	pelvis_list	pelvis_rotation	pelvis_tx	pelvis_ty	pelvis_tz	hip_flexion_r	hip_adduction_r	hip_rotation_r	knee_angle_r	knee_angle_r_beta	ankle_angle_r	subtalar_angle_r	mtp_angle_r	hip_flexion_l	hip_adduction_l	hip_rotation_l	knee_angle_l	knee_angle_l_beta	ankle_angle_l	subtalar_angle_l	mtp_angle_l	lumbar_extension	lumbar_bending	lumbar_rotation	arm_flex_r	arm_add_r	arm_rot_r	elbow_flex_r	pro_sup_r	arm_flex_l	arm_add_l	arm_rot_l	elbow_flex_l	pro_sup_l
      1.30000000	     -5.12101273	      0.61540842	      6.14857400	     -0.06960772	      1.20938086	      0.26793936	      8.21095201	     -1.08746347	     -5.34119774	      9.15601431	      0.15980260	     10.22954472	    -11.07122755	     -7.49999986	      7.21724803	      0.67669690	    -10.12374742	      7.92312272	      0.13828458	      9.24115378	     -6.67630065	     -7.49999986	     -1.89572570	     -1.39866607	     -0.24000241	      2.75923600	     -8.21680301	     12.33127566	     23.13333327	     99.44945011	     -2.08318821	     -8.45625078	     -0.52064703	     23.01259739	     93.69806999
      1.31666670	     -5.48124572	      0.62031474	      6.08945911	     -0.06866390	      1.20932856	      0.26750800	      8.71292331	     -1.11874436	     -5.35063290	      9.41999150	      0.16440987	     10.36943403	    -11.04475377	     -7.49999986	      7.76047803	      0.69300546	    -10.08513562	      8.24903358	      0.14397280	      9.35117744	     -6.77850512	     -7.49999986	     -1.51159994	     -1.42578837	     -0.23897896	      2.64447313	     -8.26026369	     11.98796340	     23.26736183	    102.74729776	     -2.25201850	     -8.51555767	     -0.89713249	     23.10212404	     97.58285906
      1.33333330	     -5.52605282	      0.59265290	      6.11968667	     -0.06965174	      1.20607530	      0.26807582	      8.86830228	     -1.07408722	     -5.19729770	      9.62630728	      0.16801076	     10.44419223	    -11.19049315	     -7.49999986	      7.90423077	      0.68179200	     -9.96845148	      8.47728441	      0.14795652	      9.35598949	     -7.02061155	     -7.49999986	     -1.69015067	     -1.38534085	     -0.27860533	      2.59355394	     -8.30787511	     12.05898049	     23.54706534	    100.67939003	     -2.32572916	     -8.50464617	     -0.99512003	     23.33156689	     95.82454273
      1.35000000	     -5.65266297	      0.58254557	      6.00110857	     -0.06892814	      1.20641058	      0.26767178	      9.12310624	     -1.04520639	     -4.94993336	      9.84041282	      0.17174760	     10.51056553	    -11.34130917	     -7.49999986	      8.26764993	      0.63868512	     -9.84364930	      8.85040479	      0.15446870	      9.52915149	     -7.31171553	     -7.49999986	     -1.76114471	     -1.41324427	     -0.13124073	      2.51259668	     -8.41836113	     12.03621145	     23.83841557	     99.87201198	     -2.53173835	     -8.49181434	     -1.10761676	     23.63735269	     94.65345135
      1.36666670	     -5.93275449	      0.52912445	      6.10575040	     -0.06917626	      1.20844954	      0.26791906	      9.62697148	     -1.04487142	     -4.99045276	     10.13602249	      0.17690697	     10.77050215	    -11.13374328	     -7.49999987	      8.74300203	      0.58792707	     -9.90613477	      9.15546470	      0.15979300	      9.76928657	     -7.05284837	     -7.49999987	     -1.67648615	     -1.37816666	     -0.22776857	      2.61529725	     -8.42426807	     11.45418566	     23.78558208	    103.13814958	     -2.65863462	     -8.40636977	     -2.30137611	     23.77147595	     98.49325492
      1.38333330	     -6.19114350	      0.50316671	      6.07066392	     -0.06852094	      1.20599603	      0.26765934	     10.07141132	     -1.04203312	     -4.83761540	     10.33361136	      0.18035554	     10.78110840	    -11.16391479	     -7.49999987	      9.25130212	      0.55098585	     -9.84273267	      9.51165141	      0.16600963	      9.85845287	     -7.32025974	     -7.49999987	     -1.60948278	     -1.37687698	     -0.11501738	      2.73788498	     -8.56479774	     11.79085359	     23.81282511	    102.41149471	     -2.71736481	     -8.49044907	     -2.04457674	     23.78052286	     97.66228679
